# xmcd
#
# Track frame offsets:
#	150
#	15172
#	30744
#
# Disc length: 759 seconds
#
# Revision: 1
# Processed by: cddbd v1.4PL0 Copyright (c) Steve Scherf et al.
# Submitted via: audiograbber 1.80
#
DISCID=1302f503
DTITLE=A.K.A. - Are you sure (Maxi)
DYEAR=1900
DGENRE=
TTITLE0=Are you sure (Radio Edit)
TTITLE1=Are you sure (Original Mix)
TTITLE2=Warning (Sunship Remix)
EXTD=
EXTT0=
EXTT1=
EXTT2=
PLAYORDER=
